<svg width="16" height="16" fill="none" xmlns="http://www.w3.org/2000/svg"><path d="M6 6.667h.667a.667.667 0 000-1.334H6a.667.667 0 000 1.334zM6 8a.667.667 0 000 1.333h4A.667.667 0 0010 8H6zm7.333-2.04a.88.88 0 00-.04-.18v-.06a.713.713 0 00-.127-.187l-4-4a.713.713 0 00-.186-.126.213.213 0 00-.06 0 .587.587 0 00-.22-.074H4.667a2 2 0 00-2 2v9.334a2 2 0 002 2h6.666a2 2 0 002-2V5.96zm-4-2.353l1.727 1.726H10a.667.667 0 01-.667-.666v-1.06zM12 12.667a.667.667 0 01-.667.666H4.666A.667.667 0 014 12.667V3.333a.667.667 0 01.667-.666H8v2a2 2 0 002 2h2v6zm-2-2H6A.666.666 0 106 12h4a.667.667 0 100-1.333z" fill="#0061D9"/></svg>