<svg width="16" height="16" fill="none" xmlns="http://www.w3.org/2000/svg"><path d="M4.667 6.667a.667.667 0 100 1.333.667.667 0 000-1.333zm8-2.667H12V2a.667.667 0 00-.666-.667H4.667A.667.667 0 004 2v2h-.667a2 2 0 00-2 2v4a2 2 0 002 2H4v2a.666.666 0 00.667.667h6.667A.666.666 0 0012 14v-2h.667a2 2 0 002-2V6a2 2 0 00-2-2zM5.334 2.667h5.333V4H5.334V2.667zm5.333 10.666H5.334v-2.666h5.333v2.666zM13.334 10a.666.666 0 01-.667.667H12V10a.667.667 0 00-.666-.667H4.667A.667.667 0 004 10v.667h-.667A.666.666 0 012.667 10V6a.667.667 0 01.667-.667h9.333a.667.667 0 01.667.667v4z" fill="#0061D9"/></svg>