<svg viewBox="0 0 25 24" xmlns="http://www.w3.org/2000/svg" xmlns:xlink="http://www.w3.org/1999/xlink"><style>:root&gt;svg{display:none}:root&gt;svg:target{display:block}</style><svg fill="none" viewBox="0 0 24 24" id="css--phone" xmlns="http://www.w3.org/2000/svg"><path d="M18.677 13.936c-.198 0-.406-.063-.604-.108-.4-.09-.795-.208-1.18-.353a1.795 1.795 0 00-2.233.904l-.198.415a11.865 11.865 0 01-2.405-1.806 11.896 11.896 0 01-1.8-2.412l.414-.19a1.805 1.805 0 00.9-2.24 9.486 9.486 0 01-.351-1.192 7.153 7.153 0 01-.108-.605 2.711 2.711 0 00-.937-1.625 2.696 2.696 0 00-1.765-.625H5.7a2.695 2.695 0 00-2.583 1.915 2.718 2.718 0 00-.092 1.156 17.246 17.246 0 004.872 9.937 17.154 17.154 0 009.906 4.886c.117.01.234.01.351 0a2.697 2.697 0 002.702-2.71v-2.71a2.715 2.715 0 00-.622-1.707 2.7 2.7 0 00-1.557-.93zm.44 5.42a.906.906 0 01-1.035.894 15.436 15.436 0 01-8.888-4.372 15.518 15.518 0 01-4.395-8.942.906.906 0 01.9-1.04h2.702a.899.899 0 01.9.705c0 .244.082.497.136.741.104.473.242.938.414 1.391l-1.26.596a.902.902 0 00-.469.506.906.906 0 000 .687 13.07 13.07 0 006.304 6.323.9.9 0 00.684 0 .901.901 0 00.505-.47l.567-1.265a11.16 11.16 0 002.152.551.9.9 0 01.703.904l.08 2.79zM13.806 4h-.63a.903.903 0 00-.825.98.907.907 0 00.977.827h.478a5.39 5.39 0 013.82 1.587 5.428 5.428 0 011.583 3.832v.479a.905.905 0 00.82.976h.071a.899.899 0 00.901-.822v-.633a7.237 7.237 0 00-2.107-5.106A7.194 7.194 0 0013.805 4zm1.8 7.226a.905.905 0 00.901.903.9.9 0 00.9-.903c0-.958-.379-1.877-1.054-2.555a3.596 3.596 0 00-2.547-1.058.9.9 0 00-.901.903.905.905 0 00.9.904 1.808 1.808 0 011.802 1.806z" fill="#0061D9"/></svg><svg fill="none" viewBox="0 0 25 24" id="css--search" xmlns="http://www.w3.org/2000/svg"><path d="M22.21 20.29l-3.71-3.68A9 9 0 1017.11 18l3.68 3.68a.999.999 0 001.42 0 1 1 0 000-1.39zM11.5 18a7 7 0 110-14 7 7 0 010 14z" fill="#fff"/></svg></svg>