<svg width="24" height="24" viewBox="0 0 24 24" fill="none" xmlns="http://www.w3.org/2000/svg">
<path d="M18.6766 13.936C18.4785 13.936 18.2713 13.8728 18.0732 13.8277C17.6723 13.7377 17.2781 13.62 16.8935 13.4754C16.4757 13.3229 16.0165 13.3308 15.6042 13.4976C15.1919 13.6644 14.8556 13.9782 14.6601 14.3787L14.462 14.7942C13.5874 14.2966 12.7794 13.6896 12.0575 12.9876C11.3577 12.2635 10.7524 11.4531 10.2564 10.5759L10.6707 10.3862C11.0699 10.1901 11.3828 9.85281 11.5491 9.43926C11.7153 9.0257 11.7232 8.56508 11.5712 8.14604C11.4282 7.75676 11.3109 7.35846 11.22 6.95372C11.175 6.755 11.139 6.54724 11.1119 6.34852C11.0026 5.71227 10.6703 5.13609 10.175 4.72374C9.67971 4.31139 9.0539 4.08997 8.41028 4.09936H5.69961C5.3189 4.09886 4.94238 4.17907 4.59474 4.33474C4.2471 4.49041 3.93618 4.71801 3.68238 5.00264C3.42331 5.29499 3.2304 5.64013 3.11692 6.01434C3.00344 6.38856 2.97207 6.78298 3.02497 7.1705C3.5145 10.9301 5.22701 14.4226 7.89696 17.1066C10.5728 19.7846 14.0548 21.5023 17.803 21.9933C17.9199 22.0022 18.0374 22.0022 18.1543 21.9933C18.8183 21.9943 19.4595 21.7499 19.9554 21.3068C20.2391 21.0522 20.466 20.7404 20.6212 20.3917C20.7764 20.043 20.8564 19.6653 20.8559 19.2835V16.5736C20.8511 15.9495 20.6315 15.3462 20.2345 14.8656C19.8374 14.385 19.2871 14.0567 18.6766 13.936ZM19.1178 19.3557C19.1175 19.4818 19.091 19.6063 19.0398 19.7215C18.9886 19.8366 18.914 19.9397 18.8207 20.0241C18.722 20.1143 18.6045 20.1814 18.4768 20.2204C18.3491 20.2595 18.2143 20.2696 18.0822 20.25C14.7216 19.8097 11.5985 18.2736 9.19376 15.8781C6.78701 13.4641 5.24216 10.3206 4.79906 6.93565C4.7795 6.80317 4.78955 6.66799 4.82849 6.53988C4.86742 6.41178 4.93428 6.29396 5.0242 6.19496C5.10941 6.10026 5.21366 6.02473 5.33007 5.97335C5.44649 5.92197 5.57243 5.89591 5.69961 5.89688H8.40127C8.60945 5.89178 8.81295 5.95919 8.97714 6.08765C9.14134 6.21611 9.25607 6.39768 9.30182 6.60144C9.30182 6.84532 9.38287 7.09824 9.43691 7.34213C9.54099 7.81532 9.67944 8.28024 9.85116 8.73317L8.59039 9.32934C8.37368 9.42911 8.20528 9.61102 8.1221 9.83517C8.03203 10.0551 8.03203 10.3017 8.1221 10.5217C9.41818 13.3062 11.6498 15.5446 14.426 16.8446C14.6452 16.9349 14.8911 16.9349 15.1104 16.8446C15.3339 16.7612 15.5152 16.5923 15.6147 16.3749L16.182 15.1103C16.6466 15.2802 17.122 15.419 17.6049 15.5258C17.8391 15.58 18.0912 15.6252 18.3344 15.6613C18.5375 15.7072 18.7185 15.8223 18.8466 15.987C18.9747 16.1517 19.0419 16.3558 19.0368 16.5646L19.1178 19.3557ZM13.8046 4H13.1742C12.9354 4.02036 12.7144 4.13506 12.5598 4.31885C12.4053 4.50265 12.3299 4.74049 12.3502 4.98006C12.3705 5.21962 12.4848 5.44128 12.6681 5.59628C12.8513 5.75128 13.0885 5.82692 13.3273 5.80655H13.8046C15.2376 5.80655 16.612 6.37755 17.6253 7.39394C18.6386 8.41032 19.2079 9.78883 19.2079 11.2262V11.705C19.1879 11.9432 19.263 12.1798 19.4166 12.3626C19.5702 12.5455 19.7899 12.6598 20.0274 12.6805H20.0994C20.3249 12.6814 20.5425 12.5975 20.7092 12.4453C20.8759 12.2931 20.9797 12.0837 21 11.8585V11.2262C21 9.31127 20.2422 7.47462 18.8931 6.1197C17.5439 4.76478 15.7138 4.00239 13.8046 4ZM15.6057 11.2262C15.6057 11.4658 15.7006 11.6955 15.8695 11.8649C16.0383 12.0343 16.2674 12.1295 16.5062 12.1295C16.7451 12.1295 16.9741 12.0343 17.143 11.8649C17.3119 11.6955 17.4068 11.4658 17.4068 11.2262C17.4068 10.268 17.0273 9.34895 16.3517 8.67136C15.6762 7.99377 14.76 7.61311 13.8046 7.61311C13.5657 7.61311 13.3367 7.70828 13.1678 7.87767C12.9989 8.04707 12.904 8.27682 12.904 8.51639C12.904 8.75595 12.9989 8.9857 13.1678 9.1551C13.3367 9.3245 13.5657 9.41966 13.8046 9.41966C14.2823 9.41966 14.7404 9.61 15.0782 9.94879C15.4159 10.2876 15.6057 10.7471 15.6057 11.2262Z" fill="#0061D9"/>
</svg>
