<svg width="16" height="16" viewBox="0 0 16 16" fill="none" xmlns="http://www.w3.org/2000/svg">
<path d="M5.99984 6.66671H6.6665C6.84331 6.66671 7.01288 6.59647 7.13791 6.47145C7.26293 6.34642 7.33317 6.17685 7.33317 6.00004C7.33317 5.82323 7.26293 5.65366 7.13791 5.52864C7.01288 5.40361 6.84331 5.33337 6.6665 5.33337H5.99984C5.82303 5.33337 5.65346 5.40361 5.52843 5.52864C5.40341 5.65366 5.33317 5.82323 5.33317 6.00004C5.33317 6.17685 5.40341 6.34642 5.52843 6.47145C5.65346 6.59647 5.82303 6.66671 5.99984 6.66671V6.66671ZM5.99984 8.00004C5.82303 8.00004 5.65346 8.07028 5.52843 8.1953C5.40341 8.32033 5.33317 8.4899 5.33317 8.66671C5.33317 8.84352 5.40341 9.01309 5.52843 9.13811C5.65346 9.26314 5.82303 9.33337 5.99984 9.33337H9.99984C10.1766 9.33337 10.3462 9.26314 10.4712 9.13811C10.5963 9.01309 10.6665 8.84352 10.6665 8.66671C10.6665 8.4899 10.5963 8.32033 10.4712 8.1953C10.3462 8.07028 10.1766 8.00004 9.99984 8.00004H5.99984ZM13.3332 5.96004C13.3262 5.8988 13.3128 5.83846 13.2932 5.78004V5.72004C13.2611 5.65149 13.2184 5.58848 13.1665 5.53337L9.1665 1.53337C9.11139 1.48152 9.04838 1.43876 8.97984 1.40671C8.95994 1.40388 8.93974 1.40388 8.91984 1.40671C8.85211 1.36787 8.77732 1.34294 8.69984 1.33337H4.6665C4.13607 1.33337 3.62736 1.54409 3.25229 1.91916C2.87722 2.29423 2.6665 2.80294 2.6665 3.33337V12.6667C2.6665 13.1971 2.87722 13.7058 3.25229 14.0809C3.62736 14.456 4.13607 14.6667 4.6665 14.6667H11.3332C11.8636 14.6667 12.3723 14.456 12.7474 14.0809C13.1225 13.7058 13.3332 13.1971 13.3332 12.6667V6.00004V5.96004ZM9.33317 3.60671L11.0598 5.33337H9.99984C9.82303 5.33337 9.65346 5.26314 9.52843 5.13811C9.40341 5.01309 9.33317 4.84352 9.33317 4.66671V3.60671ZM11.9998 12.6667C11.9998 12.8435 11.9296 13.0131 11.8046 13.1381C11.6796 13.2631 11.51 13.3334 11.3332 13.3334H4.6665C4.48969 13.3334 4.32012 13.2631 4.1951 13.1381C4.07008 13.0131 3.99984 12.8435 3.99984 12.6667V3.33337C3.99984 3.15656 4.07008 2.98699 4.1951 2.86197C4.32012 2.73695 4.48969 2.66671 4.6665 2.66671H7.99984V4.66671C7.99984 5.19714 8.21055 5.70585 8.58562 6.08092C8.9607 6.45599 9.4694 6.66671 9.99984 6.66671H11.9998V12.6667ZM9.99984 10.6667H5.99984C5.82303 10.6667 5.65346 10.7369 5.52843 10.862C5.40341 10.987 5.33317 11.1566 5.33317 11.3334C5.33317 11.5102 5.40341 11.6798 5.52843 11.8048C5.65346 11.9298 5.82303 12 5.99984 12H9.99984C10.1766 12 10.3462 11.9298 10.4712 11.8048C10.5963 11.6798 10.6665 11.5102 10.6665 11.3334C10.6665 11.1566 10.5963 10.987 10.4712 10.862C10.3462 10.7369 10.1766 10.6667 9.99984 10.6667Z" fill="#0061D9"/>
</svg>
