<svg width="16" height="16" viewBox="0 0 16 16" fill="none" xmlns="http://www.w3.org/2000/svg">
<path d="M4.66683 6.66671C4.53498 6.66671 4.40608 6.70581 4.29645 6.77906C4.18682 6.85232 4.10137 6.95643 4.05091 7.07825C4.00045 7.20007 3.98725 7.33411 4.01297 7.46343C4.0387 7.59276 4.10219 7.71154 4.19543 7.80478C4.28866 7.89801 4.40745 7.96151 4.53677 7.98723C4.66609 8.01295 4.80013 7.99975 4.92195 7.94929C5.04377 7.89884 5.14789 7.81339 5.22114 7.70375C5.2944 7.59412 5.3335 7.46523 5.3335 7.33337C5.3335 7.15656 5.26326 6.98699 5.13823 6.86197C5.01321 6.73695 4.84364 6.66671 4.66683 6.66671ZM12.6668 4.00004H12.0002V2.00004C12.0002 1.82323 11.9299 1.65366 11.8049 1.52864C11.6799 1.40361 11.5103 1.33337 11.3335 1.33337H4.66683C4.49002 1.33337 4.32045 1.40361 4.19543 1.52864C4.0704 1.65366 4.00016 1.82323 4.00016 2.00004V4.00004H3.3335C2.80306 4.00004 2.29436 4.21075 1.91928 4.58583C1.54421 4.9609 1.3335 5.46961 1.3335 6.00004V10C1.3335 10.5305 1.54421 11.0392 1.91928 11.4143C2.29436 11.7893 2.80306 12 3.3335 12H4.00016V14C4.00016 14.1769 4.0704 14.3464 4.19543 14.4714C4.32045 14.5965 4.49002 14.6667 4.66683 14.6667H11.3335C11.5103 14.6667 11.6799 14.5965 11.8049 14.4714C11.9299 14.3464 12.0002 14.1769 12.0002 14V12H12.6668C13.1973 12 13.706 11.7893 14.081 11.4143C14.4561 11.0392 14.6668 10.5305 14.6668 10V6.00004C14.6668 5.46961 14.4561 4.9609 14.081 4.58583C13.706 4.21075 13.1973 4.00004 12.6668 4.00004ZM5.3335 2.66671H10.6668V4.00004H5.3335V2.66671ZM10.6668 13.3334H5.3335V10.6667H10.6668V13.3334ZM13.3335 10C13.3335 10.1769 13.2633 10.3464 13.1382 10.4714C13.0132 10.5965 12.8436 10.6667 12.6668 10.6667H12.0002V10C12.0002 9.82323 11.9299 9.65366 11.8049 9.52864C11.6799 9.40361 11.5103 9.33337 11.3335 9.33337H4.66683C4.49002 9.33337 4.32045 9.40361 4.19543 9.52864C4.0704 9.65366 4.00016 9.82323 4.00016 10V10.6667H3.3335C3.15669 10.6667 2.98712 10.5965 2.86209 10.4714C2.73707 10.3464 2.66683 10.1769 2.66683 10V6.00004C2.66683 5.82323 2.73707 5.65366 2.86209 5.52864C2.98712 5.40361 3.15669 5.33337 3.3335 5.33337H12.6668C12.8436 5.33337 13.0132 5.40361 13.1382 5.52864C13.2633 5.65366 13.3335 5.82323 13.3335 6.00004V10Z" fill="#0061D9"/>
</svg>
