<svg width="17" height="18" viewBox="0 0 17 18" fill="none" xmlns="http://www.w3.org/2000/svg">
<path d="M15.5265 8.71671C14.0957 5.39462 11.404 3.33337 8.49986 3.33337C5.5957 3.33337 2.90403 5.39462 1.4732 8.71671C1.43419 8.80608 1.41406 8.90253 1.41406 9.00004C1.41406 9.09755 1.43419 9.19401 1.4732 9.28337C2.90403 12.6055 5.5957 14.6667 8.49986 14.6667C11.404 14.6667 14.0957 12.6055 15.5265 9.28337C15.5655 9.19401 15.5857 9.09755 15.5857 9.00004C15.5857 8.90253 15.5655 8.80608 15.5265 8.71671V8.71671ZM8.49986 13.25C6.25445 13.25 4.12945 11.628 2.90403 9.00004C4.12945 6.37212 6.25445 4.75004 8.49986 4.75004C10.7453 4.75004 12.8703 6.37212 14.0957 9.00004C12.8703 11.628 10.7453 13.25 8.49986 13.25V13.25ZM8.49986 6.16671C7.93948 6.16671 7.39169 6.33288 6.92575 6.64421C6.45981 6.95554 6.09665 7.39805 5.88221 7.91577C5.66776 8.4335 5.61165 9.00318 5.72097 9.5528C5.8303 10.1024 6.10015 10.6073 6.49639 11.0035C6.89264 11.3998 7.3975 11.6696 7.94711 11.7789C8.49672 11.8883 9.06641 11.8321 9.58413 11.6177C10.1019 11.4033 10.5444 11.0401 10.8557 10.5742C11.167 10.1082 11.3332 9.56042 11.3332 9.00004C11.3332 8.24859 11.0347 7.52792 10.5033 6.99657C9.97198 6.46522 9.25131 6.16671 8.49986 6.16671V6.16671ZM8.49986 10.4167C8.21967 10.4167 7.94578 10.3336 7.71281 10.178C7.47984 10.0223 7.29826 9.80104 7.19103 9.54218C7.08381 9.28331 7.05576 8.99847 7.11042 8.72366C7.16508 8.44886 7.30001 8.19643 7.49813 7.99831C7.69625 7.80018 7.94868 7.66526 8.22349 7.61059C8.49829 7.55593 8.78314 7.58399 9.042 7.69121C9.30086 7.79844 9.52211 7.98001 9.67778 8.21298C9.83344 8.44595 9.91653 8.71985 9.91653 9.00004C9.91653 9.37576 9.76727 9.7361 9.5016 10.0018C9.23592 10.2675 8.87559 10.4167 8.49986 10.4167Z" fill="#0061D9"/>
</svg>
